%TF.GenerationSoftware,KiCad,Pcbnew,10.0.3*%
%TF.CreationDate,2026-07-02T08:32:18-04:00*%
%TF.ProjectId,shenzhen,7368656e-7a68-4656-9e2e-6b696361645f,rev?*%
%TF.SameCoordinates,Original*%
%TF.FileFunction,Legend,Bot*%
%TF.FilePolarity,Positive*%
%FSLAX46Y46*%
G04 Gerber Fmt 4.6, Leading zero omitted, Abs format (unit mm)*
G04 Created by KiCad (PCBNEW 10.0.3) date 2026-07-02 08:32:18*
%MOMM*%
%LPD*%
G01*
G04 APERTURE LIST*
%ADD10C,3.175000*%
G04 APERTURE END LIST*
D10*
G36*
X123990401Y-61514284D02*
G01*
X125152389Y-61740631D01*
X126068764Y-62083430D01*
X126784833Y-62526701D01*
X127381438Y-63123656D01*
X127814972Y-63857014D01*
X128089193Y-64755564D01*
X128187505Y-65860761D01*
X128073489Y-67087651D01*
X127746727Y-68147160D01*
X127209236Y-69076585D01*
X126498219Y-69810390D01*
X125628361Y-70361601D01*
X124591801Y-70739714D01*
X123474735Y-70948721D01*
X122285860Y-71019815D01*
X120231792Y-70973131D01*
X120231792Y-74987900D01*
X120308874Y-76126757D01*
X120413563Y-76521283D01*
X120546634Y-76792266D01*
X120733339Y-77007906D01*
X120979812Y-77173332D01*
X121871138Y-77449090D01*
X121871138Y-78107000D01*
X116469982Y-78107000D01*
X116469982Y-77449090D01*
X117164772Y-77218304D01*
X117487245Y-77020254D01*
X117686952Y-76750862D01*
X117812943Y-76359088D01*
X117891111Y-75031326D01*
X117891111Y-64506943D01*
X117830314Y-63293176D01*
X117745839Y-62940514D01*
X117634895Y-62708006D01*
X117543599Y-62624410D01*
X120231792Y-62624410D01*
X120231792Y-69873358D01*
X121605152Y-69873358D01*
X122904574Y-69776540D01*
X123855724Y-69520519D01*
X124401518Y-69230995D01*
X124848206Y-68843214D01*
X125207370Y-68348007D01*
X125455163Y-67781801D01*
X125617188Y-67067617D01*
X125676375Y-66171259D01*
X125601027Y-65186824D01*
X125399531Y-64449404D01*
X125063584Y-63818576D01*
X124637398Y-63343117D01*
X124110821Y-62989245D01*
X123477914Y-62751432D01*
X122785494Y-62622636D01*
X122006846Y-62577727D01*
X120231792Y-62624410D01*
X117543599Y-62624410D01*
X117274456Y-62377965D01*
X116469982Y-62088094D01*
X116469982Y-61431270D01*
X122529048Y-61431270D01*
X123990401Y-61514284D01*
G37*
G36*
X134354051Y-76960543D02*
G01*
X137501377Y-76960543D01*
X138368819Y-76899746D01*
X138960504Y-76714098D01*
X139400196Y-76366687D01*
X139778005Y-75782603D01*
X140121074Y-74865220D01*
X140533624Y-73173763D01*
X141825559Y-73173763D01*
X141578029Y-78107000D01*
X130592241Y-78107000D01*
X130592241Y-77449090D01*
X131287030Y-77218304D01*
X131609504Y-77020254D01*
X131809210Y-76750862D01*
X131935201Y-76359088D01*
X132013369Y-75031326D01*
X132013369Y-64506943D01*
X131952572Y-63293176D01*
X131868097Y-62940514D01*
X131757153Y-62708006D01*
X131396714Y-62377965D01*
X130592241Y-62088094D01*
X130592241Y-61431270D01*
X135775179Y-61431270D01*
X135775179Y-62114150D01*
X134997847Y-62380137D01*
X134637408Y-62681950D01*
X134522177Y-62901097D01*
X134425704Y-63266035D01*
X134354051Y-64536256D01*
X134354051Y-76960543D01*
G37*
G36*
X144943573Y-74285478D02*
G01*
X145250010Y-75295806D01*
X145599311Y-75976936D01*
X146069442Y-76507574D01*
X146655658Y-76876947D01*
X147358864Y-77088854D01*
X148328659Y-77168990D01*
X149238568Y-77077861D01*
X149941544Y-76827776D01*
X150484779Y-76435084D01*
X150885376Y-75899745D01*
X151140638Y-75200473D01*
X151233884Y-74287650D01*
X151150153Y-73428460D01*
X150921214Y-72767726D01*
X150526614Y-72189121D01*
X149897437Y-71606071D01*
X149078374Y-71062356D01*
X147718519Y-70330421D01*
X146384436Y-69593914D01*
X145463604Y-68944034D01*
X144724943Y-68219250D01*
X144222695Y-67467537D01*
X143916234Y-66638267D01*
X143812316Y-65723968D01*
X143887436Y-64827179D01*
X144103626Y-64038629D01*
X144455026Y-63338774D01*
X144940794Y-62724761D01*
X145562332Y-62204488D01*
X146339731Y-61774339D01*
X147183671Y-61474243D01*
X148125093Y-61287688D01*
X149179816Y-61222824D01*
X150987439Y-61320533D01*
X151923752Y-61467588D01*
X153221726Y-61765653D01*
X153221726Y-65113827D01*
X151958019Y-65113827D01*
X151619382Y-64097219D01*
X151253426Y-63429969D01*
X150786008Y-62918484D01*
X150269818Y-62603782D01*
X149659953Y-62434178D01*
X148803092Y-62369280D01*
X148050567Y-62443942D01*
X147403677Y-62658065D01*
X146850795Y-63020171D01*
X146426584Y-63529850D01*
X146161656Y-64153499D01*
X146068316Y-64918408D01*
X146149877Y-65731789D01*
X146374472Y-66365592D01*
X146753722Y-66919765D01*
X147332024Y-67464280D01*
X148074342Y-67963362D01*
X149267755Y-68604222D01*
X150723650Y-69403812D01*
X151685518Y-70061177D01*
X152459881Y-70791931D01*
X153029565Y-71601728D01*
X153388085Y-72521146D01*
X153513769Y-73623226D01*
X153405544Y-74850110D01*
X153109903Y-75802144D01*
X152622685Y-76616217D01*
X151988417Y-77252586D01*
X151214939Y-77729603D01*
X150276332Y-78064659D01*
X149253437Y-78250501D01*
X148098499Y-78315446D01*
X146831870Y-78250848D01*
X145363936Y-78042557D01*
X143666837Y-77666222D01*
X143666837Y-74285478D01*
X144943573Y-74285478D01*
G37*
G36*
X128733592Y-102219062D02*
G01*
X128667776Y-103500597D01*
X128489318Y-104513060D01*
X128195056Y-105389472D01*
X127793411Y-106140464D01*
X127312469Y-106729414D01*
X126726207Y-107225037D01*
X126041436Y-107616341D01*
X125185657Y-107929630D01*
X124239592Y-108117338D01*
X123063192Y-108185846D01*
X121644863Y-108097022D01*
X120530349Y-107855806D01*
X119555524Y-107413761D01*
X118780266Y-106771232D01*
X118187501Y-105954552D01*
X117782545Y-104996179D01*
X117561811Y-103903229D01*
X117477474Y-102401453D01*
X117477474Y-94402314D01*
X117417763Y-93126664D01*
X117246229Y-92608804D01*
X116921617Y-92285278D01*
X116093259Y-91985636D01*
X116093259Y-91301670D01*
X121264255Y-91301670D01*
X121264255Y-91959580D01*
X120627396Y-92162033D01*
X120305617Y-92341732D01*
X120093021Y-92591502D01*
X119950607Y-92967072D01*
X119884202Y-93456991D01*
X119855069Y-94379515D01*
X119855069Y-102996394D01*
X119922399Y-104122010D01*
X120101513Y-104969037D01*
X120410938Y-105699427D01*
X120791993Y-106204518D01*
X121275295Y-106580965D01*
X121848339Y-106840714D01*
X122502221Y-106984982D01*
X123379119Y-107039390D01*
X124187127Y-106962672D01*
X124857787Y-106746262D01*
X125438061Y-106377990D01*
X125919562Y-105850593D01*
X126271486Y-105197176D01*
X126502561Y-104367582D01*
X126615354Y-103410087D01*
X126659982Y-101995416D01*
X126659982Y-94401228D01*
X126628240Y-93431566D01*
X126559016Y-92967072D01*
X126420305Y-92621598D01*
X126227890Y-92385158D01*
X125924899Y-92209428D01*
X125238854Y-91985636D01*
X125238854Y-91301670D01*
X130154720Y-91301670D01*
X130154720Y-91985636D01*
X129498194Y-92200243D01*
X129177626Y-92385158D01*
X128969253Y-92637077D01*
X128829130Y-93003984D01*
X128762910Y-93482298D01*
X128733592Y-94402314D01*
X128733592Y-102219062D01*
G37*
G36*
X133756938Y-104155878D02*
G01*
X134063375Y-105166206D01*
X134412676Y-105847336D01*
X134882807Y-106377974D01*
X135469023Y-106747347D01*
X136172229Y-106959254D01*
X137142024Y-107039390D01*
X138051933Y-106948261D01*
X138754909Y-106698176D01*
X139298144Y-106305484D01*
X139698741Y-105770145D01*
X139954003Y-105070873D01*
X140047249Y-104158050D01*
X139963518Y-103298860D01*
X139734579Y-102638126D01*
X139339979Y-102059521D01*
X138710802Y-101476471D01*
X137891738Y-100932756D01*
X136531883Y-100200821D01*
X135197801Y-99464314D01*
X134276969Y-98814434D01*
X133538308Y-98089650D01*
X133036060Y-97337937D01*
X132729599Y-96508667D01*
X132625681Y-95594368D01*
X132700801Y-94697579D01*
X132916991Y-93909029D01*
X133268391Y-93209174D01*
X133754159Y-92595161D01*
X134375697Y-92074888D01*
X135153096Y-91644739D01*
X135997036Y-91344643D01*
X136938458Y-91158088D01*
X137993181Y-91093224D01*
X139800804Y-91190933D01*
X140737117Y-91337988D01*
X142035091Y-91636053D01*
X142035091Y-94984227D01*
X140771384Y-94984227D01*
X140432747Y-93967619D01*
X140066791Y-93300369D01*
X139599373Y-92788884D01*
X139083183Y-92474182D01*
X138473318Y-92304578D01*
X137616457Y-92239680D01*
X136863932Y-92314342D01*
X136217042Y-92528465D01*
X135664160Y-92890571D01*
X135239949Y-93400250D01*
X134975021Y-94023899D01*
X134881681Y-94788808D01*
X134963242Y-95602189D01*
X135187837Y-96235992D01*
X135567087Y-96790165D01*
X136145389Y-97334680D01*
X136887707Y-97833762D01*
X138081120Y-98474622D01*
X139537015Y-99274212D01*
X140498883Y-99931577D01*
X141273246Y-100662331D01*
X141842930Y-101472128D01*
X142201450Y-102391546D01*
X142327134Y-103493626D01*
X142218909Y-104720510D01*
X141923268Y-105672544D01*
X141436050Y-106486617D01*
X140801782Y-107122986D01*
X140028304Y-107600003D01*
X139089697Y-107935059D01*
X138066802Y-108120901D01*
X136911864Y-108185846D01*
X135645235Y-108121248D01*
X134177301Y-107912957D01*
X132480202Y-107536622D01*
X132480202Y-104155878D01*
X133756938Y-104155878D01*
G37*
G36*
X156348426Y-91301670D02*
G01*
X156348426Y-95053709D01*
X155097746Y-95053709D01*
X154715594Y-93986506D01*
X154318242Y-93238487D01*
X153870951Y-92758625D01*
X153609104Y-92609861D01*
X153292294Y-92514352D01*
X152487821Y-92448127D01*
X148684755Y-92448127D01*
X148684755Y-98736266D01*
X151249083Y-98736266D01*
X151742149Y-98694955D01*
X152069842Y-98589702D01*
X152333824Y-98396407D01*
X152561645Y-98084871D01*
X152739321Y-97668245D01*
X152945969Y-96929729D01*
X154149965Y-96929729D01*
X154149965Y-101689260D01*
X152945969Y-101689260D01*
X152748724Y-100983547D01*
X152567074Y-100561260D01*
X152336782Y-100236360D01*
X152087212Y-100037972D01*
X151771514Y-99927715D01*
X151249083Y-99882723D01*
X148684755Y-99882723D01*
X148684755Y-106830943D01*
X152427024Y-106830943D01*
X152988880Y-106802327D01*
X153381318Y-106728891D01*
X153722359Y-106588784D01*
X154007744Y-106379309D01*
X154248255Y-106103393D01*
X154473492Y-105731170D01*
X154816560Y-104895212D01*
X155206312Y-103600021D01*
X156472191Y-103600021D01*
X156236603Y-107977400D01*
X144922945Y-107977400D01*
X144922945Y-107319490D01*
X145617735Y-107088704D01*
X145940208Y-106890654D01*
X146139915Y-106621262D01*
X146265906Y-106229488D01*
X146344074Y-104901726D01*
X146344074Y-94377343D01*
X146283277Y-93163576D01*
X146198802Y-92810914D01*
X146087858Y-92578406D01*
X145727419Y-92248365D01*
X144922945Y-91958494D01*
X144922945Y-91301670D01*
X156348426Y-91301670D01*
G37*
M02*
