%TF.GenerationSoftware,KiCad,Pcbnew,10.0.3*%
%TF.CreationDate,2026-07-02T08:32:18-04:00*%
%TF.ProjectId,shenzhen,7368656e-7a68-4656-9e2e-6b696361645f,rev?*%
%TF.SameCoordinates,Original*%
%TF.FileFunction,Copper,L1,Top*%
%TF.FilePolarity,Positive*%
%FSLAX46Y46*%
G04 Gerber Fmt 4.6, Leading zero omitted, Abs format (unit mm)*
G04 Created by KiCad (PCBNEW 10.0.3) date 2026-07-02 08:32:18*
%MOMM*%
%LPD*%
G01*
G04 APERTURE LIST*
G04 Aperture macros list*
%AMRoundRect*
0 Rectangle with rounded corners*
0 $1 Rounding radius*
0 $2 $3 $4 $5 $6 $7 $8 $9 X,Y pos of 4 corners*
0 Add a 4 corners polygon primitive as box body*
4,1,4,$2,$3,$4,$5,$6,$7,$8,$9,$2,$3,0*
0 Add four circle primitives for the rounded corners*
1,1,$1+$1,$2,$3*
1,1,$1+$1,$4,$5*
1,1,$1+$1,$6,$7*
1,1,$1+$1,$8,$9*
0 Add four rect primitives between the rounded corners*
20,1,$1+$1,$2,$3,$4,$5,0*
20,1,$1+$1,$4,$5,$6,$7,0*
20,1,$1+$1,$6,$7,$8,$9,0*
20,1,$1+$1,$8,$9,$2,$3,0*%
%AMFreePoly0*
4,1,6,1.000000,0.000000,0.500000,-0.750000,-0.500000,-0.750000,-0.500000,0.750000,0.500000,0.750000,1.000000,0.000000,1.000000,0.000000,$1*%
%AMFreePoly1*
4,1,6,0.500000,-0.750000,-0.650000,-0.750000,-0.150000,0.000000,-0.650000,0.750000,0.500000,0.750000,0.500000,-0.750000,0.500000,-0.750000,$1*%
G04 Aperture macros list end*
%TA.AperFunction,ComponentPad*%
%ADD10R,1.700000X1.700000*%
%TD*%
%TA.AperFunction,ComponentPad*%
%ADD11C,1.700000*%
%TD*%
%TA.AperFunction,ComponentPad*%
%ADD12RoundRect,0.250000X-0.550000X0.550000X-0.550000X-0.550000X0.550000X-0.550000X0.550000X0.550000X0*%
%TD*%
%TA.AperFunction,ComponentPad*%
%ADD13C,1.600000*%
%TD*%
%TA.AperFunction,ComponentPad*%
%ADD14RoundRect,0.250000X-0.350000X0.350000X-0.350000X-0.350000X0.350000X-0.350000X0.350000X0.350000X0*%
%TD*%
%TA.AperFunction,ComponentPad*%
%ADD15C,1.200000*%
%TD*%
%TA.AperFunction,SMDPad,CuDef*%
%ADD16FreePoly0,0.000000*%
%TD*%
%TA.AperFunction,SMDPad,CuDef*%
%ADD17FreePoly1,0.000000*%
%TD*%
%TA.AperFunction,ComponentPad*%
%ADD18RoundRect,0.250000X0.550000X0.550000X-0.550000X0.550000X-0.550000X-0.550000X0.550000X-0.550000X0*%
%TD*%
%TA.AperFunction,ComponentPad*%
%ADD19RoundRect,0.250000X0.550000X-0.550000X0.550000X0.550000X-0.550000X0.550000X-0.550000X-0.550000X0*%
%TD*%
%TA.AperFunction,Conductor*%
%ADD20C,0.200000*%
%TD*%
G04 APERTURE END LIST*
D10*
%TO.P,J2,1,Pin_1_1*%
%TO.N,Net-(J1-Pin_1)*%
X143000000Y-66920000D03*
D11*
%TO.P,J2,2,Pin_2_2*%
%TO.N,Net-(J1-Pin_2)*%
X143000000Y-69460000D03*
%TO.P,J2,3,Pin_3_3*%
%TO.N,Net-(J2-Pin_3)*%
X143000000Y-72000000D03*
%TO.P,J2,4,Pin_4_4*%
%TO.N,Net-(J2-Pin_4)*%
X143000000Y-74540000D03*
%TD*%
D12*
%TO.P,J1,1,Pin_1_1*%
%TO.N,Net-(J1-Pin_1)*%
X157750000Y-67960000D03*
D13*
%TO.P,J1,2,Pin_2_2*%
%TO.N,Net-(J1-Pin_2)*%
X157750000Y-71560000D03*
%TD*%
D14*
%TO.P,C1,1*%
%TO.N,Net-(J3-Pin_12)*%
X140750000Y-92000000D03*
D15*
%TO.P,C1,2*%
%TO.N,Net-(J2-Pin_4)*%
X140750000Y-93500000D03*
%TD*%
D16*
%TO.P,JP1,1,A_1*%
%TO.N,Net-(J2-Pin_3)*%
X157300000Y-86000000D03*
D17*
%TO.P,JP1,2,B_2*%
%TO.N,Net-(J3-Pin_12)*%
X158750000Y-86000000D03*
%TD*%
D18*
%TO.P,J3,1,Pin_1_1*%
%TO.N,Net-(J2-Pin_4)*%
X133000000Y-90700000D03*
D13*
%TO.P,J3,2,Pin_2_2*%
%TO.N,unconnected-(J3-Pin_2-Pad2)*%
X133000000Y-88160000D03*
%TO.P,J3,3,Pin_3_3*%
%TO.N,unconnected-(J3-Pin_3-Pad3)*%
X133000000Y-85620000D03*
%TO.P,J3,4,Pin_4_4*%
%TO.N,unconnected-(J3-Pin_4-Pad4)*%
X133000000Y-83080000D03*
%TO.P,J3,5,Pin_5_5*%
%TO.N,unconnected-(J3-Pin_5-Pad5)*%
X133000000Y-80540000D03*
%TO.P,J3,6,Pin_6_6*%
%TO.N,unconnected-(J3-Pin_6-Pad6)*%
X133000000Y-78000000D03*
%TO.P,J3,7,Pin_7_7*%
%TO.N,unconnected-(J3-Pin_7-Pad7)*%
X133000000Y-75460000D03*
%TO.P,J3,8,Pin_8_8*%
%TO.N,unconnected-(J3-Pin_8-Pad8)*%
X133000000Y-72920000D03*
%TO.P,J3,9,Pin_9_9*%
%TO.N,unconnected-(J3-Pin_9-Pad9)*%
X117760000Y-72920000D03*
%TO.P,J3,10,Pin_10_10*%
%TO.N,unconnected-(J3-Pin_10-Pad10)*%
X117760000Y-75460000D03*
%TO.P,J3,11,Pin_11_11*%
%TO.N,Net-(J2-Pin_4)*%
X117760000Y-78000000D03*
%TO.P,J3,12,Pin_12_12*%
%TO.N,Net-(J3-Pin_12)*%
X117760000Y-80540000D03*
%TO.P,J3,13,Pin_13_13*%
%TO.N,unconnected-(J3-Pin_13-Pad13)*%
X117760000Y-83080000D03*
%TO.P,J3,14,Pin_14_14*%
%TO.N,unconnected-(J3-Pin_14-Pad14)*%
X117760000Y-85620000D03*
%TO.P,J3,15,Pin_15_15*%
%TO.N,Net-(J3-Pin_15)*%
X117760000Y-88160000D03*
%TO.P,J3,16,Pin_16_16*%
%TO.N,Net-(J3-Pin_16)*%
X117760000Y-90700000D03*
%TD*%
D19*
%TO.P,J4,1,Pin_1_1*%
%TO.N,Net-(J3-Pin_16)*%
X107000000Y-98800000D03*
D13*
%TO.P,J4,2,Pin_2_2*%
%TO.N,Net-(J3-Pin_15)*%
X107000000Y-95200000D03*
%TD*%
%TO.N,Net-(J2-Pin_4)*%
D20*
X130075635Y-93500000D02*
X140750000Y-93500000D01*
X116660000Y-80995635D02*
X117304365Y-81640000D01*
X143000000Y-80700000D02*
X133000000Y-90700000D01*
X143000000Y-74540000D02*
X143000000Y-80700000D01*
X118215635Y-81640000D02*
X130075635Y-93500000D01*
X117760000Y-78000000D02*
X116660000Y-79100000D01*
X117304365Y-81640000D02*
X118215635Y-81640000D01*
X116660000Y-79100000D02*
X116660000Y-80995635D01*
%TO.N,Net-(J1-Pin_1)*%
X143000000Y-66920000D02*
X151920000Y-66920000D01*
X153000000Y-68000000D02*
X153040000Y-67960000D01*
X151920000Y-66920000D02*
X153000000Y-68000000D01*
X153040000Y-67960000D02*
X157750000Y-67960000D01*
%TO.N,Net-(J1-Pin_2)*%
X143000000Y-69460000D02*
X149460000Y-69460000D01*
X149460000Y-69460000D02*
X151560000Y-71560000D01*
X151560000Y-71560000D02*
X157750000Y-71560000D01*
%TO.N,Net-(J2-Pin_3)*%
X143300000Y-72000000D02*
X143000000Y-72000000D01*
X157300000Y-86000000D02*
X143300000Y-72000000D01*
%TO.N,Net-(J3-Pin_12)*%
X153505000Y-92000000D02*
X140750000Y-92000000D01*
X140750000Y-92000000D02*
X129220000Y-92000000D01*
X158750000Y-86755000D02*
X153505000Y-92000000D01*
X129220000Y-92000000D02*
X117760000Y-80540000D01*
X158750000Y-86000000D02*
X158750000Y-86755000D01*
%TO.N,Net-(J3-Pin_16)*%
X109660000Y-98800000D02*
X117760000Y-90700000D01*
X107000000Y-98800000D02*
X109660000Y-98800000D01*
%TO.N,Net-(J3-Pin_15)*%
X107000000Y-95200000D02*
X110720000Y-95200000D01*
X110720000Y-95200000D02*
X117760000Y-88160000D01*
%TD*%
M02*
