M48
; DRILL file KiCad 10.0.3 date 2026-07-02T08:32:24
; FORMAT={-:-/ absolute / metric / decimal}
; #@! TF.CreationDate,2026-07-02T08:32:24-04:00
; #@! TF.GenerationSoftware,Kicad,Pcbnew,10.0.3
; #@! TF.FileFunction,Plated,1,2,PTH
FMAT,2
METRIC
; #@! TA.AperFunction,Plated,PTH,ComponentDrill
T1C0.600
; #@! TA.AperFunction,Plated,PTH,ComponentDrill
T2C0.800
; #@! TA.AperFunction,Plated,PTH,ComponentDrill
T3C1.000
%
G90
G05
T1
X107.0Y-95.2
X107.0Y-98.8
X140.75Y-92.0
X140.75Y-93.5
X157.75Y-67.96
X157.75Y-71.56
T2
X117.76Y-72.92
X117.76Y-75.46
X117.76Y-78.0
X117.76Y-80.54
X117.76Y-83.08
X117.76Y-85.62
X117.76Y-88.16
X117.76Y-90.7
X133.0Y-72.92
X133.0Y-75.46
X133.0Y-78.0
X133.0Y-80.54
X133.0Y-83.08
X133.0Y-85.62
X133.0Y-88.16
X133.0Y-90.7
T3
X143.0Y-66.92
X143.0Y-69.46
X143.0Y-72.0
X143.0Y-74.54
M30
